<svg width="215" height="66" viewBox="0 0 215 66" fill="none" xmlns="http://www.w3.org/2000/svg">
<g clip-path="url(#clip0_1564_29547)">
<path d="M21.4569 30.5486L15.4277 30.5486C15.4907 32.3876 15.6707 34.2208 15.9668 36.0369L21.4569 30.5486Z" fill="#29C8ED"/>
<path d="M14.3176 16.2496C10.8946 15.6945 7.50579 14.9464 4.16724 14.009C1.66479 18.1333 0.232346 22.8174 1.1913e-06 27.6359L12.5124 27.6359C12.6319 23.7796 13.2385 19.9538 14.3176 16.2496Z" fill="#29C8ED"/>
<path d="M27.6333 24.3686L27.6333 17.4279C24.1547 17.3706 20.6821 17.1172 17.2321 16.6689C16.1568 20.2307 15.5502 23.9174 15.4277 27.6359L24.3669 27.6359L27.6333 24.3686Z" fill="#29C8ED"/>
<path d="M22.2993 0.759764C15.7562 2.31612 9.95875 6.10105 5.90161 11.4651C8.97469 12.2908 12.0898 12.9511 15.2336 13.4432C16.8905 8.86255 19.2765 4.57957 22.2993 0.759764Z" fill="#29C8ED"/>
<path d="M27.6332 14.5144L27.6332 -8.25515e-07C27.3291 0.0150722 27.0268 0.0363517 26.7244 0.0611779C23.0191 4.0687 20.1215 8.7533 18.1904 13.8583C21.3242 14.2435 24.4762 14.4625 27.6332 14.5144Z" fill="#29C8ED"/>
<path d="M39.4656 12.5372C37.5453 7.94223 34.8346 3.71939 31.4565 0.0602919C31.1533 0.0354658 30.8497 0.0153685 30.5459 0L30.5459 14.5144C33.0072 14.4736 35.4635 14.3312 37.9148 14.087L39.4656 12.5372Z" fill="#29C8ED"/>
<path d="M46.3655 5.6373C43.2341 3.32226 39.6673 1.66358 35.8792 0.760742C38.1994 3.69636 40.1482 6.90727 41.6814 10.3206L46.3655 5.6373Z" fill="#29C8ED"/>
<path d="M30.5459 17.4279L30.5459 21.4568L34.7371 17.2656C33.3415 17.3513 31.9444 17.4054 30.5459 17.4279Z" fill="#29C8ED"/>
<path d="M12.5124 30.5486L0 30.5486C0.288436 36.2594 2.24807 41.7597 5.63553 46.3664L13.4699 38.5328C12.9182 35.9045 12.5978 33.2329 12.5124 30.5486Z" fill="#29C8ED"/>
<path d="M53.2254 13.4682C52.9394 13.0308 52.6391 12.5996 52.3246 12.1746L11.5947 52.9036C15.7953 56.0103 20.759 57.921 25.9584 58.4327C27.8943 58.6242 29.8443 58.6242 31.7801 58.4327C32.1827 58.3928 32.5923 58.344 33.033 58.2802C33.2395 58.251 33.4498 58.2665 33.6499 58.3255C33.8499 58.3846 34.0349 58.4858 34.1925 58.6225C34.35 58.7591 34.4765 58.928 34.5632 59.1176C34.65 59.3073 34.6951 59.5133 34.6954 59.7219L34.6954 65.0471L45.3352 53.5207C45.4055 53.4441 45.484 53.3754 45.5693 53.3159C58.4709 44.2854 61.8623 26.6375 53.2254 13.4682ZM28.8702 46.9258C28.2941 46.9258 27.731 46.755 27.252 46.4349C26.773 46.1149 26.3997 45.66 26.1792 45.1278C25.9588 44.5956 25.9011 44.0099 26.0135 43.4449C26.1259 42.8799 26.4033 42.361 26.8106 41.9536C27.2179 41.5463 27.7369 41.2689 28.3019 41.1565C28.8669 41.0441 29.4526 41.1018 29.9848 41.3222C30.517 41.5427 30.9719 41.916 31.2919 42.395C31.612 42.874 31.7828 43.4371 31.7828 44.0132C31.7828 44.3956 31.7075 44.7744 31.5611 45.1278C31.4147 45.4811 31.2002 45.8022 30.9297 46.0727C30.6592 46.3432 30.3381 46.5577 29.9848 46.7041C29.6314 46.8505 29.2526 46.9258 28.8702 46.9258ZM37.6089 46.9258C37.0328 46.9261 36.4695 46.7556 35.9903 46.4358C35.5111 46.116 35.1375 45.6612 34.9168 45.129C34.696 44.5968 34.6381 44.0111 34.7503 43.446C34.8625 42.8809 35.1397 42.3618 35.547 41.9542C35.9543 41.5467 36.4732 41.2691 37.0383 41.1566C37.6033 41.0441 38.1891 41.1017 38.7214 41.3221C39.2537 41.5425 39.7087 41.9158 40.0288 42.3948C40.3489 42.8738 40.5198 43.437 40.5198 44.0132C40.5196 44.7853 40.2129 45.5257 39.6671 46.0718C39.1213 46.6179 38.381 46.9251 37.6089 46.9258ZM42.3303 36.1087C42.2776 36.1615 42.2149 36.2035 42.1459 36.2321C42.0769 36.2607 42.0029 36.2754 41.9282 36.2754C41.8536 36.2754 41.7796 36.2607 41.7106 36.2321C41.6416 36.2035 41.5789 36.1615 41.5261 36.1087L39.251 33.8336C39.1982 33.7804 39.1564 33.7175 39.1278 33.6483C39.1005 33.5806 39.0861 33.5084 39.0852 33.4355C39.0852 33.4355 39.0852 33.4355 39.0852 33.431C39.0852 33.4266 39.0852 33.431 39.0852 33.4266C39.0861 33.3536 39.1005 33.2815 39.1278 33.2138C39.1564 33.1446 39.1982 33.0816 39.251 33.0285L41.5261 30.7534C41.6328 30.6467 41.7774 30.5868 41.9282 30.5868C42.0791 30.5868 42.2237 30.6467 42.3303 30.7534C42.437 30.86 42.4969 31.0046 42.4969 31.1554C42.4969 31.3063 42.437 31.4509 42.3303 31.5575L41.0261 32.8618L46.3655 32.8618C46.8113 32.8516 47.2354 32.6674 47.5471 32.3485C47.8588 32.0296 48.0334 31.6014 48.0334 31.1554C48.0334 30.7095 47.8588 30.2813 47.5471 29.9624C47.2354 29.6435 46.8113 29.4593 46.3655 29.4491C46.2889 29.4521 46.2125 29.4396 46.1408 29.4124C46.0692 29.3852 46.0038 29.3438 45.9485 29.2907C45.8933 29.2376 45.8493 29.1738 45.8193 29.1033C45.7893 29.0328 45.7738 28.957 45.7738 28.8803C45.7738 28.8037 45.7893 28.7278 45.8193 28.6573C45.8493 28.5868 45.8933 28.5231 45.9485 28.4699C46.0038 28.4168 46.0692 28.3754 46.1408 28.3482C46.2125 28.321 46.2889 28.3085 46.3655 28.3115C47.1198 28.3115 47.8433 28.6112 48.3767 29.1446C48.9102 29.678 49.2098 30.4015 49.2098 31.1559C49.2098 31.9103 48.9102 32.6337 48.3767 33.1672C47.8433 33.7006 47.1198 34.0003 46.3655 34.0003L41.0261 34.0003L42.3303 35.3045C42.3836 35.3573 42.4258 35.42 42.4546 35.4892C42.4834 35.5584 42.4983 35.6326 42.4983 35.7075C42.4983 35.7824 42.4834 35.8566 42.4546 35.9258C42.4258 35.9949 42.3836 36.0577 42.3303 36.1105L42.3303 36.1087ZM46.3468 46.9258C45.7708 46.9258 45.2077 46.755 44.7287 46.4349C44.2497 46.1149 43.8764 45.66 43.6559 45.1278C43.4355 44.5956 43.3778 44.0099 43.4902 43.4449C43.6026 42.8799 43.88 42.361 44.2873 41.9536C44.6946 41.5463 45.2136 41.2689 45.7786 41.1565C46.3436 41.0441 46.9292 41.1018 47.4615 41.3222C47.9937 41.5427 48.4486 41.916 48.7686 42.395C49.0887 42.874 49.2595 43.4371 49.2595 44.0132C49.2595 44.3956 49.1841 44.7744 49.0378 45.1278C48.8914 45.4811 48.6769 45.8022 48.4064 46.0727C48.1359 46.3432 47.8148 46.5577 47.4615 46.7041C47.1081 46.8505 46.7293 46.9258 46.3468 46.9258ZM51.2039 29.2815C51.1511 29.3343 51.0884 29.3762 51.0194 29.4048C50.9504 29.4334 50.8765 29.4481 50.8018 29.4481C50.7271 29.4481 50.6532 29.4334 50.5842 29.4048C50.5152 29.3762 50.4525 29.3343 50.3997 29.2815C50.3469 29.2287 50.305 29.166 50.2764 29.097C50.2479 29.028 50.2332 28.9541 50.2332 28.8794C50.2332 28.8047 50.2479 28.7308 50.2764 28.6618C50.305 28.5928 50.3469 28.5301 50.3997 28.4773L51.704 27.1731L46.3655 27.1731C46.1381 27.1679 45.912 27.2082 45.7005 27.2916C45.4889 27.375 45.2961 27.4999 45.1335 27.6589C44.9709 27.8178 44.8417 28.0077 44.7534 28.2173C44.6652 28.4269 44.6198 28.652 44.6198 28.8794C44.6198 29.1068 44.6652 29.332 44.7534 29.5416C44.8417 29.7512 44.9709 29.941 45.1335 30.1C45.2961 30.259 45.4889 30.3838 45.7005 30.4672C45.912 30.5507 46.1381 30.591 46.3655 30.5858C46.5124 30.5916 46.6514 30.654 46.7534 30.7601C46.8553 30.8661 46.9122 31.0075 46.9122 31.1546C46.9122 31.3016 46.8553 31.443 46.7534 31.549C46.6514 31.6551 46.5124 31.7175 46.3655 31.7233C45.9878 31.73 45.6125 31.6614 45.2617 31.5215C44.9108 31.3815 44.5913 31.1731 44.3218 30.9084C44.0524 30.6436 43.8383 30.3279 43.6922 29.9795C43.5461 29.6311 43.4709 29.2572 43.4709 28.8794C43.4709 28.5017 43.5461 28.1277 43.6922 27.7793C43.8383 27.431 44.0524 27.1152 44.3218 26.8505C44.5913 26.5857 44.9108 26.3773 45.2617 26.2374C45.6125 26.0975 45.9878 26.0288 46.3655 26.0355L51.704 26.0355L50.3997 24.7375C50.3442 24.6853 50.2997 24.6225 50.2688 24.5527C50.238 24.483 50.2215 24.4078 50.2203 24.3316C50.2191 24.2554 50.2332 24.1797 50.2618 24.1091C50.2904 24.0384 50.3329 23.9743 50.3868 23.9203C50.4406 23.8664 50.5048 23.8238 50.5754 23.7952C50.646 23.7665 50.7217 23.7523 50.7979 23.7534C50.8741 23.7546 50.9493 23.771 51.019 23.8017C51.0888 23.8325 51.1516 23.8769 51.2039 23.9324L53.4799 26.2084C53.5317 26.261 53.5729 26.323 53.6014 26.3911C53.659 26.5305 53.659 26.687 53.6014 26.8264C53.5732 26.8953 53.5316 26.958 53.479 27.0108L51.2039 29.2815Z" fill="white"/>
</g>
<path d="M82.7151 43.5234C81.3925 43.5234 80.2298 43.2248 79.2271 42.6274C78.2245 42.0088 77.4458 41.1981 76.8911 40.1954C76.3365 39.1714 76.0591 38.0514 76.0591 36.8354V21.1234H80.6351V37.3794C80.6351 37.9554 80.8378 38.4568 81.2431 38.8834C81.6485 39.2888 82.1391 39.4914 82.7151 39.4914H88.6351V43.5234H82.7151ZM99.5696 43.5234C97.7136 43.5234 96.0923 43.1714 94.7056 42.4674C93.3403 41.7421 92.2736 40.7608 91.5056 39.5234C90.759 38.2861 90.3856 36.8994 90.3856 35.3634C90.3856 33.6354 90.7376 32.1314 91.4416 30.8514C92.1456 29.5714 93.1056 28.5794 94.3216 27.8754C95.5376 27.1714 96.9136 26.8194 98.4496 26.8194C100.284 26.8194 101.767 27.2034 102.898 27.9714C104.05 28.7394 104.892 29.7741 105.426 31.0754C105.959 32.3554 106.226 33.7848 106.226 35.3634C106.226 35.5768 106.215 35.8328 106.194 36.1314C106.172 36.4088 106.14 36.6221 106.098 36.7714H95.0576C95.2283 37.4328 95.5163 37.9874 95.9216 38.4354C96.3483 38.8834 96.871 39.2248 97.4896 39.4594C98.1296 39.6728 98.8443 39.7794 99.6336 39.7794H104.178V43.5234H99.5696ZM95.0256 33.8274H101.842C101.799 33.4221 101.724 33.0488 101.618 32.7074C101.511 32.3448 101.362 32.0248 101.17 31.7474C100.978 31.4701 100.754 31.2354 100.498 31.0434C100.242 30.8514 99.943 30.7021 99.6016 30.5954C99.2603 30.4888 98.887 30.4354 98.4816 30.4354C97.9483 30.4354 97.4683 30.5314 97.0416 30.7234C96.6363 30.9154 96.295 31.1714 96.0176 31.4914C95.7403 31.8114 95.5163 32.1741 95.3456 32.5794C95.1963 32.9848 95.0896 33.4008 95.0256 33.8274ZM108.194 43.5234L113.09 36.3874C112.237 35.9608 111.512 35.4274 110.914 34.7874C110.338 34.1261 109.89 33.3794 109.57 32.5474C109.272 31.7154 109.122 30.8301 109.122 29.8914V27.2034H113.506V29.8914C113.506 30.4461 113.624 30.9688 113.858 31.4594C114.093 31.9501 114.413 32.3661 114.818 32.7074C115.224 33.0274 115.682 33.2514 116.194 33.3794L120.354 27.2034H125.154L120.45 34.0514C121.432 34.4141 122.264 34.9368 122.946 35.6194C123.629 36.3021 124.152 37.0914 124.514 37.9874C124.877 38.8621 125.058 39.8008 125.058 40.8034V43.5234H120.674V40.8034C120.674 40.1634 120.514 39.5768 120.194 39.0434C119.896 38.5101 119.48 38.0834 118.946 37.7634C118.434 37.4221 117.858 37.2408 117.218 37.2194L112.994 43.5234H108.194ZM128.502 43.5234V27.2034H132.918V43.5234H128.502ZM130.71 25.2514C129.963 25.2514 129.313 24.9848 128.758 24.4514C128.225 23.8968 127.958 23.2461 127.958 22.4994C127.958 21.7528 128.225 21.1128 128.758 20.5794C129.313 20.0248 129.963 19.7474 130.71 19.7474C131.457 19.7474 132.097 20.0248 132.63 20.5794C133.185 21.1128 133.462 21.7528 133.462 22.4994C133.462 23.2461 133.185 23.8968 132.63 24.4514C132.097 24.9848 131.457 25.2514 130.71 25.2514ZM137.193 43.5234V21.1234H147.209C148.681 21.1234 150.014 21.4541 151.209 22.1154C152.425 22.7554 153.385 23.6514 154.089 24.8034C154.814 25.9554 155.177 27.2994 155.177 28.8354C155.177 30.3288 154.825 31.6514 154.121 32.8034C153.417 33.9341 152.489 34.8301 151.337 35.4914L153.385 39.0754C153.47 39.2034 153.577 39.3101 153.705 39.3954C153.833 39.4594 153.982 39.4914 154.153 39.4914H156.329V43.5234H153.449C152.553 43.5234 151.732 43.2994 150.985 42.8514C150.26 42.4034 149.684 41.8168 149.257 41.0914L146.729 36.5474C146.537 36.5474 146.334 36.5474 146.121 36.5474C145.929 36.5474 145.737 36.5474 145.545 36.5474H141.769V43.5234H137.193ZM141.769 32.5154H146.665C147.39 32.5154 148.052 32.3768 148.649 32.0994C149.246 31.8008 149.716 31.3741 150.057 30.8194C150.42 30.2648 150.601 29.6034 150.601 28.8354C150.601 28.0674 150.42 27.4061 150.057 26.8514C149.694 26.2968 149.214 25.8808 148.617 25.6034C148.041 25.3048 147.39 25.1554 146.665 25.1554H141.769V32.5154ZM166.476 43.5234C164.62 43.5234 162.999 43.1714 161.612 42.4674C160.247 41.7421 159.18 40.7608 158.412 39.5234C157.665 38.2861 157.292 36.8994 157.292 35.3634C157.292 33.6354 157.644 32.1314 158.348 30.8514C159.052 29.5714 160.012 28.5794 161.228 27.8754C162.444 27.1714 163.82 26.8194 165.356 26.8194C167.191 26.8194 168.673 27.2034 169.804 27.9714C170.956 28.7394 171.799 29.7741 172.332 31.0754C172.865 32.3554 173.132 33.7848 173.132 35.3634C173.132 35.5768 173.121 35.8328 173.1 36.1314C173.079 36.4088 173.047 36.6221 173.004 36.7714H161.964C162.135 37.4328 162.423 37.9874 162.828 38.4354C163.255 38.8834 163.777 39.2248 164.396 39.4594C165.036 39.6728 165.751 39.7794 166.54 39.7794H171.084V43.5234H166.476ZM161.932 33.8274H168.748C168.705 33.4221 168.631 33.0488 168.524 32.7074C168.417 32.3448 168.268 32.0248 168.076 31.7474C167.884 31.4701 167.66 31.2354 167.404 31.0434C167.148 30.8514 166.849 30.7021 166.508 30.5954C166.167 30.4888 165.793 30.4354 165.388 30.4354C164.855 30.4354 164.375 30.5314 163.948 30.7234C163.543 30.9154 163.201 31.1714 162.924 31.4914C162.647 31.8114 162.423 32.1741 162.252 32.5794C162.103 32.9848 161.996 33.4008 161.932 33.8274ZM182.653 43.9074C181.159 43.9074 179.858 43.5234 178.749 42.7554C177.639 41.9874 176.775 40.9634 176.157 39.6834C175.559 38.3821 175.261 36.9528 175.261 35.3954C175.261 33.7954 175.602 32.3448 176.285 31.0434C176.989 29.7421 177.991 28.7181 179.293 27.9714C180.594 27.2034 182.151 26.8194 183.965 26.8194C185.799 26.8194 187.346 27.2034 188.605 27.9714C189.863 28.7394 190.823 29.7741 191.485 31.0754C192.146 32.3768 192.477 33.8168 192.477 35.3954V43.5234H188.093V40.8034H188.029C187.709 41.3794 187.303 41.9021 186.813 42.3714C186.343 42.8408 185.767 43.2141 185.085 43.4914C184.402 43.7688 183.591 43.9074 182.653 43.9074ZM183.901 40.1634C184.754 40.1634 185.49 39.9501 186.109 39.5234C186.727 39.0968 187.197 38.5208 187.517 37.7954C187.858 37.0488 188.029 36.2274 188.029 35.3314C188.029 34.4354 187.858 33.6354 187.517 32.9314C187.197 32.2061 186.727 31.6301 186.109 31.2034C185.49 30.7768 184.754 30.5634 183.901 30.5634C183.026 30.5634 182.269 30.7768 181.629 31.2034C181.01 31.6301 180.53 32.2061 180.189 32.9314C179.869 33.6354 179.709 34.4354 179.709 35.3314C179.709 36.2274 179.869 37.0488 180.189 37.7954C180.53 38.5208 181.01 39.0968 181.629 39.5234C182.269 39.9501 183.026 40.1634 183.901 40.1634ZM204.275 43.9074C202.91 43.9074 201.683 43.6941 200.595 43.2674C199.528 42.8194 198.632 42.2008 197.907 41.4114C197.182 40.6008 196.627 39.6621 196.243 38.5954C195.859 37.5074 195.667 36.3234 195.667 35.0434C195.667 33.4221 195.987 32.0034 196.627 30.7874C197.288 29.5501 198.206 28.5794 199.379 27.8754C200.574 27.1714 201.96 26.8194 203.539 26.8194C204.222 26.8194 204.872 26.9154 205.491 27.1074C206.131 27.2994 206.707 27.5768 207.219 27.9394C207.731 28.3021 208.147 28.7288 208.467 29.2194H208.499V20.1634H212.883V35.0434C212.883 36.8354 212.531 38.4034 211.827 39.7474C211.123 41.0701 210.131 42.0941 208.851 42.8194C207.571 43.5448 206.046 43.9074 204.275 43.9074ZM204.275 40.1634C205.15 40.1634 205.896 39.9501 206.515 39.5234C207.134 39.0968 207.603 38.5208 207.923 37.7954C208.264 37.0701 208.435 36.2594 208.435 35.3634C208.435 34.4674 208.264 33.6568 207.923 32.9314C207.603 32.2061 207.134 31.6301 206.515 31.2034C205.896 30.7768 205.15 30.5634 204.275 30.5634C203.422 30.5634 202.675 30.7768 202.035 31.2034C201.416 31.6301 200.936 32.2061 200.595 32.9314C200.275 33.6568 200.115 34.4674 200.115 35.3634C200.115 36.2594 200.275 37.0701 200.595 37.7954C200.936 38.5208 201.416 39.0968 202.035 39.5234C202.675 39.9501 203.422 40.1634 204.275 40.1634Z" fill="white"/>
<defs>
<clipPath id="clip0_1564_29547">
<rect width="58" height="65.0471" fill="white"/>
</clipPath>
</defs>
</svg>
